<svg xmlns="http://www.w3.org/2000/svg" viewBox="0 0 800 800" role="img" aria-label="Agrib Nails - Gesti¾n de turnos">
  <rect width="800" height="800" fill="#F8F7F2"/>
  <text x="400" y="118" text-anchor="middle" fill="#243B55" font-family="Arial, Helvetica, sans-serif" font-weight="700" font-size="44" letter-spacing="2">AGRIB NAILS</text>
  <text x="400" y="198" text-anchor="middle" fill="#243B55" font-family="Arial, Helvetica, sans-serif" font-weight="800" font-size="52" letter-spacing="1">GESTIėN DE</text>
  <text x="400" y="262" text-anchor="middle" fill="#243B55" font-family="Arial, Helvetica, sans-serif" font-weight="800" font-size="52" letter-spacing="1">TURNOS</text>
  <g transform="translate(400 520)">
    <g transform="translate(-200 -20)">
      <rect x="0" y="40" width="170" height="170" rx="14" fill="#FFFFFF" stroke="#243B55" stroke-width="5"/>
      <rect x="0" y="40" width="170" height="42" rx="14" fill="#87CEEB" stroke="#243B55" stroke-width="5"/>
      <circle cx="42" cy="130" r="14" fill="#E8A0BF" stroke="#243B55" stroke-width="4"/>
      <circle cx="85" cy="130" r="14" fill="#FFFFFF" stroke="#243B55" stroke-width="4"/>
      <circle cx="128" cy="130" r="14" fill="#4CAF50" stroke="#243B55" stroke-width="4"/>
      <rect x="118" y="108" width="28" height="28" rx="6" fill="#F4C430" stroke="#243B55" stroke-width="4"/>
    </g>
    <g transform="translate(40 -10)">
      <rect x="0" y="60" width="52" height="130" rx="10" fill="#E8A0BF" stroke="#243B55" stroke-width="5"/>
      <rect x="8" y="20" width="36" height="50" rx="8" fill="#243B55" stroke="#243B55" stroke-width="4"/>
      <rect x="12" y="8" width="28" height="22" rx="6" fill="#FFFFFF" stroke="#243B55" stroke-width="4"/>
    </g>
    <g transform="translate(150 20)">
      <path d="M0 150 C0 90, 70 70, 90 110 C95 130, 80 150, 60 150 Z" fill="#F4C4D8" stroke="#243B55" stroke-width="5"/>
      <rect x="18" y="70" width="14" height="36" rx="7" fill="#E8A0BF" stroke="#243B55" stroke-width="4"/>
      <rect x="42" y="62" width="14" height="44" rx="7" fill="#E8A0BF" stroke="#243B55" stroke-width="4"/>
      <rect x="66" y="74" width="14" height="32" rx="7" fill="#E8A0BF" stroke="#243B55" stroke-width="4"/>
    </g>
  </g>
</svg>
