<svg xmlns="http://www.w3.org/2000/svg" viewBox="0 0 800 800" role="img" aria-label="Baking In Bliss - Recetario digital">
  <rect width="800" height="800" fill="#F8F7F2"/>
  <text x="400" y="118" text-anchor="middle" fill="#243B55" font-family="Arial, Helvetica, sans-serif" font-weight="700" font-size="44" letter-spacing="2">BAKING IN BLISS</text>
  <text x="400" y="198" text-anchor="middle" fill="#243B55" font-family="Arial, Helvetica, sans-serif" font-weight="800" font-size="58" letter-spacing="1">RECETARIO</text>
  <text x="400" y="262" text-anchor="middle" fill="#243B55" font-family="Arial, Helvetica, sans-serif" font-weight="800" font-size="58" letter-spacing="1">DIGITAL</text>
  <g transform="translate(400 520)">
    <g transform="translate(-220 0)">
      <rect x="0" y="40" width="150" height="200" rx="12" fill="#243B55"/>
      <rect x="12" y="52" width="126" height="176" rx="8" fill="#FFFFFF"/>
      <rect x="28" y="78" width="28" height="28" rx="4" fill="#4CAF50" stroke="#243B55" stroke-width="4"/>
      <path d="M34 92 L40 98 L52 84" fill="none" stroke="#243B55" stroke-width="4" stroke-linecap="round"/>
      <rect x="64" y="84" width="60" height="8" rx="4" fill="#243B55" opacity="0.35"/>
      <rect x="28" y="118" width="28" height="28" rx="4" fill="#4CAF50" stroke="#243B55" stroke-width="4"/>
      <path d="M34 132 L40 138 L52 124" fill="none" stroke="#243B55" stroke-width="4" stroke-linecap="round"/>
      <rect x="64" y="124" width="60" height="8" rx="4" fill="#243B55" opacity="0.35"/>
      <rect x="55" y="0" width="40" height="28" rx="6" fill="#F4C430" stroke="#243B55" stroke-width="4"/>
    </g>
    <g transform="translate(-20 -30)">
      <path d="M-35 120 C-35 70, 35 70, 35 120 L35 150 L-35 150 Z" fill="#E8A0BF" stroke="#243B55" stroke-width="5"/>
      <ellipse cx="0" cy="78" rx="42" ry="24" fill="#F4C4D8" stroke="#243B55" stroke-width="5"/>
      <circle cx="-14" cy="52" r="6" fill="#FFFFFF" stroke="#243B55" stroke-width="3"/>
    </g>
    <g transform="translate(120 10)">
      <path d="M0 180 L0 60 C0 20, 90 10, 110 60 L110 180 Z" fill="#FFFFFF" stroke="#243B55" stroke-width="5"/>
      <path d="M10 70 C30 40, 80 40, 100 70" fill="none" stroke="#243B55" stroke-width="5"/>
      <rect x="20" y="100" width="70" height="8" rx="4" fill="#243B55" opacity="0.25"/>
      <rect x="20" y="120" width="55" height="8" rx="4" fill="#243B55" opacity="0.25"/>
    </g>
  </g>
</svg>
